# xmcd
#
# Track frame offsets:
# 150
# 14715
# 29609
# 41694
# 53228
# 69678
# 87006
# 102322
# 120559
# 136443
# 152658
# 169927
# 183270
# 200263
# 217767
# 231707
#
# Disc length: 3279 seconds
#
#
# Revision: 0
# Processed by: cddbd v1.5.2PL0 Copyright (c) Steve Scherf et al.
# Submitted via: FreeRIP 2.944 
#
DISCID=e30ccd10
DTITLE=Rodney and Diego - Ontem, Hoje e Amanhã
DYEAR=2011
DGENRE=Country
TTITLE0=A Viagem
TTITLE1=Dupla Solidão
TTITLE2=Nascemos Para Cantar
TTITLE3=Hoje Eu Quero Te Amar and Tudo de Novo
TTITLE4=Solidão
TTITLE5=Do Outro Lado da Cidade and Proposta
TTITLE6=Bijuteria
TTITLE7=Choram As Rosas
TTITLE8=Na Hora do Adeus
TTITLE9=Cuida de Mim and Malícia de Mulher
TTITLE10=Preciso Te Encontrar
TTITLE11=Primavera
TTITLE12=Trenzinho Caipira and Tema da Vitória (Instrumental)
TTITLE13=Ontem, Hoje e Amanhã
TTITLE14=Seu Brilho Olhar
TTITLE15=Quem Sabe Um Dia
EXTD=
EXTT0=
EXTT1=
EXTT2=
EXTT3=
EXTT4=
EXTT5=
EXTT6=
EXTT7=
EXTT8=
EXTT9=
EXTT10=
EXTT11=
EXTT12=
EXTT13=
EXTT14=
EXTT15=
PLAYORDER=
